<svg xmlns="http://www.w3.org/2000/svg" viewBox="0 0 500.87 106.67" fill="currentColor"><path d="M180.67 77.785c5.361 0 10.721-1.313 15.644-4.923V60.61h-14.988V49.67h27.678v28.88c-6.453 6.236-15.534 11.268-28.334 11.268-23.083 0-37.743-16.3-37.743-36.54s14.66-36.538 36.65-36.538c10.72 0 20.129 4.046 26.583 11.377l-9.298 9.189c-4.158-5.141-10.176-8.205-17.285-8.205-13.457 0-23.522 11.16-23.522 24.178 0 13.348 10.065 24.506 24.615 24.506m62.9.328c8.752 0 15.206-7.22 15.206-15.317 0-8.094-6.454-15.316-15.206-15.316s-15.206 7.222-15.206 15.316c0 8.097 6.454 15.317 15.206 15.317m0 11.816c-15.317 0-27.46-12.144-27.46-27.133s12.143-27.13 27.46-27.13 27.46 12.142 27.46 27.13c0 14.989-12.143 27.133-27.46 27.133m59.29-11.816c8.752 0 15.206-7.22 15.206-15.317 0-8.094-6.454-15.316-15.206-15.316s-15.206 7.222-15.206 15.316c0 8.097 6.454 15.317 15.206 15.317m0 11.816c-15.317 0-27.46-12.144-27.46-27.133s12.143-27.13 27.46-27.13 27.46 12.142 27.46 27.13c0 14.989-12.143 27.133-27.46 27.133m59.29-42.449c-8.752 0-15.206 7.22-15.206 15.316s6.454 15.317 15.206 15.317 15.206-7.222 15.206-15.317-6.454-15.316-15.206-15.316m15.206-29.647h12.253v71h-12.253v-5.36c-3.829 4.047-9.517 6.454-15.971 6.454-14.879 0-26.694-12.581-26.694-27.131s11.815-27.132 26.694-27.132c6.454 0 12.142 2.407 15.971 6.455zm32.934 35.774h13.893c10.504 0 15.645-5.47 15.645-13.893 0-8.425-5.141-13.894-15.645-13.894H410.29zm30.523 35.227-16.52-28.115H410.29v28.115h-8.642v-71h22.098c17.067 0 24.724 9.407 24.724 21.223 0 9.846-5.033 17.833-14.987 20.567l17.175 29.21zm30.617-26.912-18.16-25.053h9.738l13.345 18.38 13.347-18.38h9.736l-18.16 25.162 19.584 26.804h-9.846l-14.77-20.13-14.55 20.13h-9.846zM88.536 32.754H73.914V18.132C73.914 8.117 65.795 0 55.782 0s-18.13 8.117-18.13 18.132v50.884h50.884c10.013 0 18.13-8.117 18.13-18.132 0-10.013-8.117-18.13-18.13-18.13M37.65 73.677v14.858c0 10.013 8.117 18.13 18.13 18.13 10.015 0 18.132-8.117 18.132-18.13V73.677zm-4.903-40.923H18.131C8.118 32.754 0 40.871 0 50.884 0 60.9 8.118 69.016 18.13 69.016h14.616z"/></svg>